<svg width="106" height="37" viewBox="0 0 106 37" fill="none" xmlns="http://www.w3.org/2000/svg">
<path d="M102.006 25.0775C103.078 24.5536 103.989 24.001 104.69 23.4145C104.019 24.9377 102.774 26.3343 100.972 27.6091C98.1234 29.6247 93.9377 31.2932 88.6331 32.6175C78.0305 35.2644 63.1117 36.5 45.906 36.5C44.0153 36.5 42.5167 36.4851 41.3713 36.4552C43.5068 36.1292 46.6782 35.7251 50.4944 35.2388C54.1768 34.7695 58.4596 34.2238 62.9915 33.5979C72.629 32.2669 83.3639 30.5767 91.6949 28.5025C95.8566 27.4663 99.4466 26.3276 102.006 25.0775ZM100.562 13.0065C102.54 14.5544 103.911 16.1679 104.644 17.8164C103.931 17.2047 103.003 16.6155 101.91 16.0458C99.2859 14.6782 95.601 13.3705 91.3231 12.1325C82.7603 9.65443 71.7148 7.42569 61.7673 5.55718C58.8294 5.00533 55.9894 4.48525 53.3369 3.99951C46.9892 2.83708 41.7154 1.8713 38.7435 1.13745C38.1122 0.981551 37.6011 0.839859 37.2126 0.713485C37.5429 0.672092 37.9577 0.635907 38.4639 0.605734C39.6322 0.536102 41.2607 0.5 43.4096 0.5C60.5918 0.5 76.1268 2.80702 87.3489 6.52323C92.9626 8.38222 97.4694 10.5848 100.562 13.0065ZM36.4138 0.374721C36.414 0.374704 36.4158 0.376155 36.4187 0.379125C36.4152 0.376222 36.4137 0.374737 36.4138 0.374721ZM36.3694 0.892411C36.3678 0.893442 36.367 0.893928 36.3669 0.893913C36.3669 0.893898 36.3677 0.893383 36.3694 0.892411Z" stroke="white"/>
<path d="M0.430664 15.2329C0.430664 14.7114 0.530273 14.2222 0.729492 13.7651C0.928711 13.3081 1.19824 12.9097 1.53809 12.5698C1.88379 12.2241 2.28516 11.9517 2.74219 11.7524C3.19922 11.5532 3.68848 11.4536 4.20996 11.4536H9.99316V13.9761H4.20996C4.03418 13.9761 3.87012 14.0083 3.71777 14.0728C3.56543 14.1372 3.43066 14.228 3.31348 14.3452C3.20215 14.4565 3.11426 14.5884 3.0498 14.7407C2.98535 14.8931 2.95312 15.0571 2.95312 15.2329C2.95312 15.4087 2.98535 15.5757 3.0498 15.7339C3.11426 15.8862 3.20215 16.021 3.31348 16.1382C3.43066 16.2495 3.56543 16.3374 3.71777 16.4019C3.87012 16.4663 4.03418 16.4985 4.20996 16.4985H6.73242C7.25391 16.4985 7.74316 16.5981 8.2002 16.7974C8.66309 16.9907 9.06445 17.2603 9.4043 17.606C9.75 17.9458 10.0195 18.3472 10.2129 18.8101C10.4121 19.2671 10.5117 19.7563 10.5117 20.2778C10.5117 20.7993 10.4121 21.2886 10.2129 21.7456C10.0195 22.2026 9.75 22.604 9.4043 22.9497C9.06445 23.2896 8.66309 23.5591 8.2002 23.7583C7.74316 23.9575 7.25391 24.0571 6.73242 24.0571H1.13379V21.5347H6.73242C6.9082 21.5347 7.07227 21.5024 7.22461 21.438C7.37695 21.3735 7.50879 21.2856 7.62012 21.1743C7.7373 21.0571 7.82812 20.9224 7.89258 20.77C7.95703 20.6177 7.98926 20.4536 7.98926 20.2778C7.98926 20.1021 7.95703 19.938 7.89258 19.7856C7.82812 19.6333 7.7373 19.5015 7.62012 19.3901C7.50879 19.2729 7.37695 19.1821 7.22461 19.1177C7.07227 19.0532 6.9082 19.021 6.73242 19.021H4.20996C3.68848 19.021 3.19922 18.9214 2.74219 18.7222C2.28516 18.5229 1.88379 18.2534 1.53809 17.9136C1.19824 17.5679 0.928711 17.1665 0.729492 16.7095C0.530273 16.2466 0.430664 15.7544 0.430664 15.2329ZM22.1133 19.021C22.1133 19.7183 21.9814 20.3745 21.7178 20.9897C21.4541 21.5991 21.0938 22.1323 20.6367 22.5894C20.1797 23.0405 19.6436 23.3979 19.0283 23.6616C18.4189 23.9253 17.7656 24.0571 17.0684 24.0571C16.3711 24.0571 15.7148 23.9253 15.0996 23.6616C14.4902 23.3979 13.957 23.0405 13.5 22.5894C13.0488 22.1323 12.6914 21.5991 12.4277 20.9897C12.1641 20.3745 12.0322 19.7183 12.0322 19.021V11.4536H14.5459V19.021C14.5459 19.3667 14.6104 19.6919 14.7393 19.9966C14.874 20.3013 15.0557 20.5679 15.2842 20.7964C15.5127 21.0249 15.7793 21.2065 16.084 21.3413C16.3945 21.4702 16.7227 21.5347 17.0684 21.5347C17.4141 21.5347 17.7393 21.4702 18.0439 21.3413C18.3545 21.2065 18.624 21.0249 18.8525 20.7964C19.0811 20.5679 19.2598 20.3013 19.3887 19.9966C19.5234 19.6919 19.5908 19.3667 19.5908 19.021V11.4536H22.1133V19.021ZM26.8242 13.9761V19.021H29.3467C29.6924 19.021 30.0176 18.9565 30.3223 18.8276C30.627 18.6929 30.8936 18.5112 31.1221 18.2827C31.3506 18.0542 31.5293 17.7876 31.6582 17.4829C31.793 17.1724 31.8604 16.8442 31.8604 16.4985C31.8604 16.1528 31.793 15.8276 31.6582 15.5229C31.5293 15.2124 31.3506 14.9429 31.1221 14.7144C30.8936 14.4858 30.627 14.3071 30.3223 14.1782C30.0176 14.0435 29.6924 13.9761 29.3467 13.9761H26.8242ZM26.8242 24.0571H24.3018V11.4536H29.3467C29.8096 11.4536 30.2549 11.5151 30.6826 11.6382C31.1104 11.7554 31.5088 11.9253 31.8779 12.1479C32.2529 12.3647 32.5928 12.6284 32.8975 12.939C33.208 13.2437 33.4717 13.5835 33.6885 13.9585C33.9111 14.3335 34.0811 14.7349 34.1982 15.1626C34.3213 15.5903 34.3828 16.0356 34.3828 16.4985C34.3828 17.1899 34.251 17.8433 33.9873 18.4585C33.7236 19.0679 33.3633 19.6011 32.9062 20.0581C32.4492 20.5151 31.9131 20.8755 31.2979 21.1392C30.6885 21.4028 30.0381 21.5347 29.3467 21.5347H26.8242V24.0571ZM40.333 24.0571C39.7529 24.0571 39.208 23.9487 38.6982 23.7319C38.1885 23.5093 37.7402 23.2075 37.3535 22.8267C36.9727 22.4399 36.6709 21.9917 36.4482 21.4819C36.2314 20.9722 36.123 20.4272 36.123 19.8472V17.0522H34.9541V14.6616H36.123V10.8999H38.5137V14.6616H42.1523V17.0522H38.5137V19.8472C38.5137 20.0991 38.5605 20.3364 38.6543 20.5591C38.748 20.7759 38.877 20.9663 39.041 21.1304C39.2051 21.2944 39.3984 21.4263 39.6211 21.5259C39.8438 21.6196 40.0811 21.6665 40.333 21.6665H42.1523V24.0571H40.333ZM52.6025 19.2671C52.6025 19.9702 52.4766 20.6265 52.2246 21.2358C51.9727 21.8394 51.6299 22.3638 51.1963 22.8091C50.7627 23.2485 50.2529 23.5972 49.667 23.855C49.0869 24.1069 48.4629 24.2329 47.7949 24.2329C47.1328 24.2329 46.5088 24.1069 45.9229 23.855C45.3428 23.5972 44.833 23.2485 44.3936 22.8091C43.96 22.3638 43.6172 21.8394 43.3652 21.2358C43.1133 20.6265 42.9873 19.9702 42.9873 19.2671C42.9873 18.5522 43.1133 17.8901 43.3652 17.2808C43.6172 16.6714 43.96 16.147 44.3936 15.7075C44.833 15.2622 45.3428 14.9136 45.9229 14.6616C46.5088 14.4097 47.1328 14.2837 47.7949 14.2837C48.4629 14.2837 49.0869 14.4038 49.667 14.644C50.2529 14.8784 50.7627 15.2153 51.1963 15.6548C51.6299 16.0884 51.9727 16.6128 52.2246 17.228C52.4766 17.8374 52.6025 18.5171 52.6025 19.2671ZM50.1855 19.2671C50.1855 18.8804 50.1211 18.5317 49.9922 18.2212C49.8691 17.9048 49.6992 17.6353 49.4824 17.4126C49.2656 17.1841 49.0107 17.0112 48.7178 16.894C48.4307 16.771 48.123 16.7095 47.7949 16.7095C47.4668 16.7095 47.1562 16.771 46.8633 16.894C46.5762 17.0112 46.3242 17.1841 46.1074 17.4126C45.8965 17.6353 45.7295 17.9048 45.6064 18.2212C45.4834 18.5317 45.4219 18.8804 45.4219 19.2671C45.4219 19.6304 45.4834 19.9673 45.6064 20.2778C45.7295 20.5884 45.8965 20.8579 46.1074 21.0864C46.3242 21.3149 46.5762 21.4966 46.8633 21.6313C47.1562 21.7603 47.4668 21.8247 47.7949 21.8247C48.123 21.8247 48.4307 21.7632 48.7178 21.6401C49.0107 21.5171 49.2656 21.3442 49.4824 21.1216C49.6992 20.8989 49.8691 20.6294 49.9922 20.313C50.1211 19.9966 50.1855 19.6479 50.1855 19.2671ZM60.8467 22.9585C60.6533 23.1343 60.4453 23.3013 60.2227 23.4595C60.0059 23.6118 59.7773 23.7466 59.5371 23.8638C59.2969 23.9751 59.0479 24.063 58.79 24.1274C58.5381 24.1978 58.2803 24.2329 58.0166 24.2329C57.4365 24.2329 56.8916 24.1304 56.3818 23.9253C55.8721 23.7202 55.4238 23.4302 55.0371 23.0552C54.6562 22.6743 54.3545 22.2144 54.1318 21.6753C53.915 21.1304 53.8066 20.521 53.8066 19.8472V14.644H56.1973V19.8472C56.1973 20.1636 56.2441 20.4478 56.3379 20.6997C56.4375 20.9458 56.5693 21.1538 56.7334 21.3237C56.8975 21.4937 57.0879 21.6226 57.3047 21.7104C57.5273 21.7983 57.7646 21.8423 58.0166 21.8423C58.2627 21.8423 58.4941 21.7866 58.7109 21.6753C58.9336 21.5581 59.127 21.4058 59.291 21.2183C59.4551 21.0308 59.584 20.8198 59.6777 20.5854C59.7715 20.3452 59.8184 20.0991 59.8184 19.8472V14.644H62.2178V24.0571H61.6377L60.8467 22.9585ZM66.4541 24.0571H64.0547V14.644H64.6348L65.4258 15.7603C65.8125 15.4087 66.252 15.1392 66.7441 14.9517C67.2363 14.7583 67.7461 14.6616 68.2734 14.6616H70.3916V17.0522H68.2734C68.0215 17.0522 67.7842 17.0991 67.5615 17.1929C67.3389 17.2866 67.1455 17.4155 66.9814 17.5796C66.8174 17.7437 66.6885 17.937 66.5947 18.1597C66.501 18.3823 66.4541 18.6196 66.4541 18.8716V24.0571Z" fill="white"/>
</svg>
