<svg width="42" height="42" viewBox="0 0 42 42" fill="none" xmlns="http://www.w3.org/2000/svg">
<rect width="39.9925" height="39.7607" rx="19.8804" transform="matrix(0.999526 0.0307846 -0.031145 0.999515 2.01709 0.748535)" fill="white"/>
<path d="M29.5521 13.5926C27.6387 11.5758 25.0402 10.4081 22.2616 10.3225C16.4849 10.1446 11.6606 14.6369 11.4822 20.3601C11.4258 22.1712 11.8812 23.9981 12.7113 25.5465L11.0818 30.8624L16.6843 29.5847C18.195 30.4289 19.8633 30.9153 21.6182 30.9694C27.3949 31.1473 32.2192 26.6549 32.3975 20.9318C32.4079 18.249 31.4655 15.6095 29.5521 13.5926ZM26.8691 24.5323C26.6316 25.1051 25.5899 25.6531 25.0757 25.7098C24.6348 25.7687 24.0498 25.7507 23.4693 25.5878C23.1082 25.4316 22.6009 25.271 22.0249 24.9632C19.4264 23.7954 17.8258 21.1356 17.6864 20.9138C17.5446 20.7644 16.6324 19.5035 16.6731 18.1995C16.7137 16.8955 17.3898 16.3362 17.6182 16.0532C17.8466 15.7701 18.1391 15.7791 18.3585 15.7859C18.5047 15.7904 18.7241 15.7972 18.8703 15.8017C19.0166 15.8062 19.2382 15.7405 19.4418 16.2544C19.6454 16.7682 20.1166 18.088 20.1874 18.1627C20.256 18.3098 20.2515 18.4547 20.1739 18.5974C20.0963 18.74 20.0186 18.8827 19.8679 19.023C19.7171 19.1634 19.5641 19.3763 19.4887 19.4465C19.3379 19.5868 19.1872 19.7272 19.3267 19.9491C19.4639 20.2433 19.9509 21.056 20.7327 21.8052C21.7293 22.7061 22.5246 23.0207 22.8126 23.1746C23.1006 23.3285 23.2491 23.2605 23.3998 23.1201C23.5506 22.9797 24.0805 22.416 24.2358 22.1307C24.391 21.8454 24.6082 21.9246 24.8253 22.0038C25.0424 22.083 26.3383 22.7756 26.5531 22.9272C26.8411 23.0811 26.9851 23.158 27.0559 23.2327C27.1223 23.4523 27.1065 23.9594 26.8691 24.5323Z" fill="black"/>
</svg>
