<svg width="42" height="42" viewBox="0 0 42 42" fill="none" xmlns="http://www.w3.org/2000/svg">
<rect width="39.9925" height="39.7607" rx="19.8804" transform="matrix(0.999526 0.0307846 -0.031145 0.999515 2.01733 0.101807)" fill="white"/>
<path d="M21.6386 12.4483C24.2875 12.5299 24.6487 12.541 25.7323 12.5744C26.6955 12.6041 27.1697 12.8583 27.5271 12.9891C28.0013 13.2434 28.3588 13.3742 28.7088 13.7444C29.0588 14.1147 29.2884 14.4812 29.3939 14.9637C29.5031 15.3265 29.6086 15.809 29.6992 16.7704C29.6656 17.8477 29.6581 18.0871 29.5723 20.8403C29.4865 23.5934 29.4791 23.8329 29.4455 24.9102C29.4157 25.8678 29.16 26.3392 29.0284 26.6946C28.7726 27.166 28.641 27.5214 28.2686 27.8694C27.8963 28.2174 27.5276 28.4456 27.0422 28.5505C26.6773 28.6591 26.192 28.764 25.225 28.854C24.1414 28.8206 23.9006 28.8132 21.1313 28.7279C18.3621 28.6426 18.1213 28.6352 17.0377 28.6018C16.0744 28.5722 15.6003 28.3179 15.2428 28.1871C14.7687 27.9329 14.4112 27.802 14.0612 27.4318C13.7112 27.0616 13.4815 26.695 13.3761 26.2125C13.2668 25.8497 13.1614 25.3672 13.0708 24.4059C13.1044 23.3285 13.1118 23.0891 13.1976 20.3359C13.2834 17.5828 13.2909 17.3434 13.3244 16.266C13.3543 15.3084 13.61 14.837 13.7416 14.4816C13.9973 14.0102 14.1289 13.6548 14.5013 13.3068C14.8737 12.9589 15.2424 12.7306 15.7277 12.6257C16.0926 12.5171 16.578 12.4123 17.5449 12.3222C18.6286 12.3556 18.9898 12.3667 21.6386 12.4483ZM21.6946 10.6528C18.9253 10.5675 18.6845 10.5601 17.6009 10.5267C16.5173 10.4933 15.7874 10.7105 15.1779 10.9313C14.5684 11.1522 13.9552 11.4928 13.3346 12.0727C12.7139 12.6527 12.4582 13.1241 12.0746 13.8312C11.8152 14.4223 11.6724 15.1368 11.5184 16.2104C11.4848 17.2877 11.4736 17.6469 11.3916 20.2803C11.3058 23.0335 11.2983 23.2729 11.2648 24.3502C11.2312 25.4276 11.4496 26.1532 11.6718 26.7591C11.8939 27.3651 12.2365 27.9747 12.8199 28.5918C13.4032 29.2088 13.8774 29.4631 14.5886 29.8444C15.1831 30.1024 15.9018 30.2443 16.9817 30.3974C18.0653 30.4308 18.4265 30.4419 21.0754 30.5235C23.7242 30.605 24.0854 30.6162 25.1691 30.6495C26.2527 30.6829 26.9826 30.4658 27.592 30.2449C28.2015 30.024 28.8147 29.6835 29.4354 29.1035C30.056 28.5235 30.3118 28.0521 30.6953 27.345C30.9548 26.7539 31.0976 26.0394 31.2516 24.9658C31.2851 23.8885 31.2963 23.5294 31.3784 20.8959C31.4604 18.2624 31.4716 17.9033 31.5052 16.826C31.5388 15.7487 31.3203 15.023 31.0982 14.4171C30.876 13.8112 30.5335 13.2015 29.9501 12.5845C29.3667 11.9674 28.8926 11.7132 28.1814 11.3318C27.5868 11.0739 26.8681 10.9319 25.7882 10.7788C24.7046 10.7455 24.4638 10.738 21.6946 10.6528Z" fill="black"/>
<path d="M21.5454 15.4409C18.6557 15.3519 16.2972 17.5558 16.2077 20.4287C16.1182 23.3015 18.3349 25.6463 21.2246 25.7353C24.1142 25.8243 26.4728 23.6204 26.5623 20.7476C26.6518 17.8747 24.435 15.5299 21.5454 15.4409ZM21.2805 23.9398C19.4745 23.8842 17.954 22.3995 18.0137 20.4843C18.0697 18.6887 19.563 17.1771 21.4894 17.2364C23.2955 17.2921 24.8159 18.7767 24.7562 20.6919C24.7003 22.4875 23.0866 23.9954 21.2805 23.9398Z" fill="black"/>
<path d="M26.8095 16.6814C27.4745 16.7019 28.0302 16.1825 28.0508 15.5214C28.0714 14.8603 27.5491 14.3078 26.8841 14.2873C26.2191 14.2668 25.6634 14.7862 25.6428 15.4473C25.6222 16.1084 26.1445 16.6609 26.8095 16.6814Z" fill="black"/>
</svg>
